<svg width="48" height="48" viewBox="0 0 48 48" fill="none" xmlns="http://www.w3.org/2000/svg">
<g clip-path="url(#clip0_315_1813)">
<path d="M47.584 34.9237L42.664 32.4637L39.5327 24.3187C39.4959 24.2224 39.4395 24.1347 39.3673 24.0612C39.295 23.9876 39.2084 23.9298 39.1127 23.8912L19.684 16.125C19.5481 16.0709 19.3994 16.0577 19.2562 16.087C19.113 16.1163 18.9814 16.1869 18.8777 16.29L16.2865 18.8812C16.1847 18.985 16.1153 19.1161 16.0867 19.2585C16.0581 19.401 16.0715 19.5487 16.1252 19.6837L23.8915 39.1125C23.93 39.2081 23.9879 39.2948 24.0614 39.367C24.135 39.4393 24.2227 39.4956 24.319 39.5325L32.464 42.6637L34.924 47.5837C34.9758 47.6922 35.0529 47.7866 35.1488 47.8591C35.2448 47.9315 35.3567 47.9798 35.4752 48C35.5151 48.0037 35.5553 48.0037 35.5952 48C35.7938 47.9991 35.984 47.9196 36.124 47.7787L47.779 36.1237C47.8648 36.0409 47.9296 35.9389 47.968 35.8261C48.0065 35.7133 48.0176 35.5929 48.0002 35.475C47.9801 35.3564 47.9318 35.2445 47.8593 35.1486C47.7869 35.0526 47.6925 34.9755 47.584 34.9237ZM17.6965 19.5862L18.1127 19.1737L27.784 28.845C27.1466 29.7481 26.8713 30.8576 27.0126 31.9539C27.1538 33.0503 27.7013 34.0537 28.5468 34.7658C29.3923 35.4779 30.4742 35.8468 31.5786 35.7996C32.683 35.7524 33.7295 35.2925 34.5111 34.5109C35.2928 33.7292 35.7527 32.6828 35.7999 31.5784C35.8471 30.474 35.4781 29.392 34.766 28.5466C34.0539 27.7011 33.0505 27.1536 31.9542 27.0123C30.8578 26.8711 29.7484 27.1463 28.8452 27.7837L19.174 18.1125L19.5865 17.6962L38.2502 25.1625L41.194 32.82L32.8202 41.1937L25.1627 38.25L17.6965 19.5862ZM31.3877 28.4737C32.0618 28.4747 32.7146 28.7094 33.2351 29.1378C33.7555 29.5661 34.1113 30.1617 34.2419 30.823C34.3725 31.4842 34.2698 32.1704 33.9513 32.7644C33.6327 33.3584 33.1181 33.8237 32.495 34.0808C31.8719 34.338 31.179 34.3712 30.5342 34.1747C29.8894 33.9783 29.3327 33.5643 28.9588 33.0034C28.585 32.4426 28.4172 31.7694 28.484 31.0987C28.5508 30.4279 28.8481 29.8011 29.3252 29.325C29.8728 28.7791 30.6146 28.473 31.3877 28.4737ZM35.8015 45.9825L33.9265 42.2325L42.2252 33.9337L45.9752 35.8087L35.8015 45.9825Z" fill="white"/>
<path d="M14.3439 40.1249C14.2004 39.9894 14.0106 39.9138 13.8132 39.9138C13.6159 39.9138 13.426 39.9894 13.2826 40.1249L12.3301 41.0774C9.78828 37.6276 8.38604 33.4707 8.31882 29.1862C8.2516 24.9016 9.52275 20.7028 11.9551 17.1749C12.6838 17.5759 13.5229 17.7299 14.3465 17.6139C15.1702 17.4979 15.9341 17.1181 16.5237 16.5315C17.1133 15.9448 17.497 15.1828 17.6171 14.3598C17.7372 13.5367 17.5874 12.6969 17.1901 11.9662C20.718 9.53381 24.9168 8.26266 29.2013 8.32988C33.4859 8.3971 37.6428 9.79934 41.0926 12.3412L40.1251 13.2824C39.9856 13.423 39.9074 13.6131 39.9076 13.8112C39.907 13.9099 39.926 14.0077 39.9633 14.0991C40.0006 14.1905 40.0556 14.2736 40.1251 14.3437L43.4326 17.6249C43.5731 17.7646 43.7632 17.843 43.9614 17.843C44.1595 17.843 44.3496 17.7646 44.4901 17.6249L47.7789 14.3362C47.8486 14.2665 47.9039 14.1838 47.9417 14.0927C47.9794 14.0017 47.9988 13.9041 47.9988 13.8055C47.9988 13.707 47.9794 13.6094 47.9417 13.5183C47.9039 13.4273 47.8486 13.3446 47.7789 13.2749L44.4901 9.98617C44.3496 9.84648 44.1595 9.76807 43.9614 9.76807C43.7632 9.76807 43.5731 9.84648 43.4326 9.98617L42.1614 11.2499C39.0283 8.89228 35.3241 7.41103 31.4292 6.95828C27.5344 6.50553 23.5892 7.09759 19.9989 8.67367L24.3226 4.36117C24.8129 4.59542 25.3702 4.64845 25.8959 4.51084C26.4215 4.37323 26.8814 4.05388 27.194 3.60944C27.5065 3.16501 27.6516 2.62422 27.6034 2.08302C27.5551 1.54182 27.3168 1.0352 26.9305 0.653025C26.5443 0.270854 26.0352 0.0378436 25.4935 -0.00466857C24.9519 -0.0471808 24.4126 0.103554 23.9715 0.420794C23.5304 0.738034 23.2159 1.20127 23.0839 1.72832C22.9518 2.25537 23.0107 2.81216 23.2501 3.29992L15.9526 10.6087C15.2117 10.1116 14.3211 9.8873 13.4332 9.97395C12.5452 10.0606 11.7148 10.4529 11.0839 11.0837C10.4531 11.7146 10.0608 12.545 9.97414 13.433C9.88749 14.321 10.1118 15.2115 10.6089 15.9524L3.30011 23.2499C2.81044 23.0113 2.25205 22.954 1.72414 23.0883C1.19623 23.2225 0.733002 23.5395 0.416772 23.983C0.100541 24.4265 -0.0482133 24.9678 -0.00305756 25.5106C0.0420981 26.0535 0.278239 26.5627 0.663404 26.9479C1.04857 27.333 1.55781 27.5692 2.10064 27.6143C2.64347 27.6595 3.18473 27.5107 3.62824 27.1945C4.07175 26.8783 4.38879 26.4151 4.52302 25.8871C4.65724 25.3592 4.59996 24.8008 4.36136 24.3112L8.68511 19.9987C7.10746 23.5881 6.51353 27.5327 6.9643 31.4275C7.41507 35.3223 8.8943 39.027 11.2501 42.1612L9.98261 43.4324C9.84292 43.5729 9.76451 43.763 9.76451 43.9612C9.76451 44.1593 9.84292 44.3494 9.98261 44.4899L13.2714 47.7787C13.4114 47.9195 13.6015 47.9991 13.8001 47.9999C13.8991 48 13.9971 47.9805 14.0885 47.9425C14.1799 47.9045 14.2628 47.8489 14.3326 47.7787L17.6251 44.4899C17.7648 44.3494 17.8432 44.1593 17.8432 43.9612C17.8432 43.763 17.7648 43.5729 17.6251 43.4324L14.3439 40.1249ZM43.9689 11.5687L46.1964 13.7962L43.9689 16.0237L41.7414 13.7962L43.9689 11.5687ZM24.7501 1.73617C24.8616 1.62381 25.0039 1.54709 25.159 1.51575C25.3141 1.4844 25.475 1.49984 25.6214 1.5601C25.7677 1.62036 25.8928 1.72274 25.9809 1.85423C26.0689 1.98573 26.116 2.14041 26.116 2.29867C26.116 2.45692 26.0689 2.61161 25.9809 2.74311C25.8928 2.8746 25.7677 2.97697 25.6214 3.03724C25.475 3.0975 25.3141 3.11294 25.159 3.08159C25.0039 3.05024 24.8616 2.97353 24.7501 2.86117C24.6762 2.78733 24.6175 2.69965 24.5775 2.60313C24.5375 2.50661 24.5169 2.40315 24.5169 2.29867C24.5169 2.19418 24.5375 2.09073 24.5775 1.99421C24.6175 1.89769 24.6762 1.81 24.7501 1.73617ZM12.1501 12.1499C12.3679 11.9311 12.6268 11.7574 12.9119 11.639C13.1969 11.5205 13.5026 11.4595 13.8114 11.4595C14.1201 11.4595 14.4258 11.5205 14.7109 11.639C14.996 11.7574 15.2548 11.9311 15.4726 12.1499C15.8018 12.4786 16.0261 12.8975 16.1172 13.3537C16.2082 13.8099 16.1618 14.2829 15.984 14.7127C15.8061 15.1426 15.5048 15.51 15.118 15.7686C14.7313 16.0271 14.2766 16.1651 13.8114 16.1651C13.3462 16.1651 12.8914 16.0271 12.5047 15.7686C12.1179 15.51 11.8166 15.1426 11.6387 14.7127C11.4609 14.2829 11.4145 13.8099 11.5056 13.3537C11.5966 12.8975 11.8209 12.4786 12.1501 12.1499ZM2.86511 25.8749C2.71199 26.0026 2.51666 26.0684 2.31749 26.0594C2.11832 26.0504 1.92972 25.9673 1.78874 25.8263C1.64777 25.6853 1.56461 25.4967 1.55561 25.2975C1.54661 25.0984 1.61242 24.903 1.74011 24.7499C1.89019 24.6024 2.09219 24.5198 2.30261 24.5198C2.51303 24.5198 2.71503 24.6024 2.86511 24.7499C2.93904 24.8238 2.99768 24.9114 3.0377 25.008C3.07771 25.1045 3.09831 25.2079 3.09831 25.3124C3.09831 25.4169 3.07771 25.5204 3.0377 25.6169C2.99768 25.7134 2.93904 25.8011 2.86511 25.8749ZM13.8114 46.1737L11.5839 43.9462L13.8114 41.7187L16.0389 43.9462L13.8114 46.1737Z" fill="white"/>
</g>
<defs>
<clipPath id="clip0_315_1813">
<rect width="48" height="48" fill="white"/>
</clipPath>
</defs>
</svg>
