<svg width="48" height="48" viewBox="0 0 48 48" fill="none" xmlns="http://www.w3.org/2000/svg">
<g clip-path="url(#clip0_315_1806)">
<path d="M24.0365 10.3462C17.2428 10.3462 11.6924 15.8966 11.6924 22.6903C11.6924 26.2426 13.2465 29.6616 15.8663 31.9706C17.82 33.9244 17.6424 38.0983 17.598 38.1427C17.598 38.3647 17.6424 38.5423 17.82 38.7199C17.9533 38.8531 18.1753 38.9419 18.3529 38.9419H29.6757C29.8977 38.9419 30.0754 38.8531 30.2086 38.7199C30.3418 38.5867 30.4306 38.3647 30.4306 38.1427C30.4306 38.0983 30.2086 33.9244 32.1623 31.9706L32.2955 31.8374C34.8709 29.484 36.3806 26.1538 36.3806 22.6903C36.3806 15.8966 30.8302 10.3462 24.0365 10.3462ZM31.141 30.8161C31.0966 30.8605 31.0078 30.9493 31.0078 30.9937C29.2761 32.8587 28.9653 35.9225 28.9209 37.3878H19.1077C19.0633 35.9225 18.7525 32.7255 16.8876 30.8161C14.5342 28.7736 13.1577 25.7986 13.1577 22.6459C13.1577 16.6515 17.9977 11.8115 23.9921 11.8115C29.9866 11.8115 34.8265 16.6515 34.8265 22.6459C34.8265 25.7986 33.4944 28.7736 31.141 30.8161Z" fill="white"/>
<path d="M23.9921 13.4986C23.5924 13.4986 23.2372 13.8538 23.2372 14.2535C23.2372 14.6531 23.5924 15.0083 23.9921 15.0083C28.4768 15.0083 32.0735 18.6494 32.0735 23.0897C32.0735 23.4894 32.4287 23.8446 32.8283 23.8446C33.228 23.8446 33.5832 23.4894 33.5832 23.0897C33.6276 17.8057 29.3205 13.4986 23.9921 13.4986ZM28.9208 39.7854H19.0633C18.042 39.7854 17.1984 40.629 17.1984 41.6503C17.1984 42.6716 18.042 43.5153 19.0633 43.5153H28.8764C29.9421 43.4709 30.7858 42.6716 30.7858 41.6503C30.7858 40.629 29.9421 39.7854 28.9208 39.7854ZM28.9208 41.9611H19.0633C18.8857 41.9611 18.7081 41.8279 18.7081 41.6059C18.7081 41.3839 18.8413 41.2507 19.0633 41.2507H28.8764C29.0541 41.2507 29.2317 41.3839 29.2317 41.6059C29.2317 41.8279 29.0985 41.9611 28.9208 41.9611ZM27.4555 44.2701H20.5286C19.5073 44.2701 18.6637 45.1138 18.6637 46.1351C18.6637 47.1563 19.5073 48 20.5286 48H27.4555C28.4768 48 29.3205 47.1563 29.3205 46.1351C29.3205 45.0694 28.4768 44.2701 27.4555 44.2701ZM27.4555 46.4459H20.5286C20.351 46.4459 20.1734 46.3127 20.1734 46.0907C20.1734 45.8686 20.3066 45.7354 20.5286 45.7354H27.4555C27.6332 45.7354 27.8108 45.8686 27.8108 46.0907C27.8108 46.3127 27.6332 46.4459 27.4555 46.4459ZM23.9921 6.6605C24.4361 6.6605 24.7469 6.30527 24.7469 5.90564V0.754857C24.7469 0.355227 24.3917 0 23.9921 0C23.5924 0 23.2372 0.355227 23.2372 0.754857V5.90564C23.2372 6.30527 23.5924 6.6605 23.9921 6.6605ZM36.5582 3.81869C36.203 3.55227 35.759 3.68548 35.5369 3.9963L32.6951 8.25902C32.4287 8.61425 32.5175 9.10268 32.8727 9.3247C33.006 9.41351 33.1392 9.45791 33.2724 9.45791C33.5388 9.45791 33.7608 9.3247 33.894 9.10268L36.7358 4.83996C37.0023 4.52914 36.9134 4.0407 36.5582 3.81869ZM14.9782 9.2803C15.1114 9.2803 15.2446 9.23589 15.3778 9.14709C15.7331 8.92507 15.8219 8.43663 15.5998 8.08141L12.8468 3.77428C12.6248 3.41906 12.1364 3.33025 11.7812 3.55227C11.4259 3.77428 11.3371 4.26272 11.5591 4.61795L14.3122 8.92507C14.4898 9.19149 14.7118 9.2803 14.9782 9.2803ZM9.6054 13.987L5.12066 11.5449C4.76543 11.3673 4.277 11.5005 4.09938 11.8557C3.87737 12.2109 4.01058 12.6994 4.41021 12.877L8.89494 15.3191C9.02815 15.3636 9.11696 15.408 9.25017 15.408C9.51659 15.408 9.78301 15.2747 9.91622 15.0083C10.0938 14.6531 9.96062 14.1647 9.6054 13.987ZM43.9292 11.8557C43.7516 11.5005 43.2631 11.3673 42.9079 11.5449L38.3788 13.987C38.0235 14.1647 37.8903 14.6531 38.0679 15.0083C38.2011 15.2747 38.4676 15.408 38.734 15.408C38.8672 15.408 39.0004 15.3636 39.0892 15.3191L43.6183 12.877C43.9736 12.6994 44.1068 12.2109 43.9292 11.8557Z" fill="white"/>
</g>
<defs>
<clipPath id="clip0_315_1806">
<rect width="48" height="48" fill="white"/>
</clipPath>
</defs>
</svg>
